<?xml version="1.0" encoding="utf-8"?>
<!-- Generator: Adobe Illustrator 19.0.0, SVG Export Plug-In . SVG Version: 6.00 Build 0)  -->
<svg version="1.1" id="Lager_1" xmlns="http://www.w3.org/2000/svg" xmlns:xlink="http://www.w3.org/1999/xlink" x="0px" y="0px"
	 viewBox="-859 101 1280 800" style="enable-background:new -859 101 1280 800;" xml:space="preserve">
<style type="text/css">
	.st0{fill:none;}
	.st1{fill:#006837;}
	.st2{fill:#F7931E;stroke:#000000;stroke-miterlimit:10;}
</style>
<line class="st0" x1="-512.5" y1="291.2" x2="-31.4" y2="291.2"/>
<polyline class="st0" points="-512.5,633.1 -512.5,291.2 -31.4,291.2 -31.4,633.1 "/>
<rect x="-512.5" y="291.2" class="st1" width="481.1" height="341.9"/>
<path class="st1" d="M-271.9,850.6c133,0,240.5-97.3,240.5-217.6h-481.1C-512.5,753.3-404.9,850.6-271.9,850.6"/>
<rect x="-276" y="303.3" transform="matrix(-0.7479 -0.6638 0.6638 -0.7479 -795.8523 738.1906)" class="st2" width="36.5" height="433.8"/>
<rect x="-219.8" y="377" transform="matrix(-0.739 -0.6737 0.6737 -0.739 -521.7846 584.9584)" class="st2" width="144.4" height="33.1"/>
<rect x="-308.7" y="424.2" transform="matrix(-0.7385 -0.6742 0.6742 -0.7385 -620.7458 642.7465)" class="st2" width="245.9" height="35.1"/>
</svg>
